<?xml version="1.0" encoding="UTF-8" standalone="no"?>
<!DOCTYPE svg PUBLIC "-//W3C//DTD SVG 1.1//EN"
 "http://www.w3.org/Graphics/SVG/1.1/DTD/svg11.dtd">
<!-- Generated by graphviz version 2.38.0 (20140413.2041)
 -->
<!-- Title: models_diagram Pages: 1 -->
<svg width="564pt" height="501pt"
 viewBox="0.00 0.00 563.59 500.60" xmlns="http://www.w3.org/2000/svg" xmlns:xlink="http://www.w3.org/1999/xlink">
<g id="graph0" class="graph" transform="scale(1 1) rotate(0) translate(4 496.6)">
<title>models_diagram</title>
<polygon fill="white" stroke="none" points="-4,4 -4,-496.6 559.591,-496.6 559.591,4 -4,4"/>
<!-- playlist -->
<g id="node1" class="node"><title>playlist</title>
<polygon fill="none" stroke="black" points="-1.42109e-14,-366.9 -1.42109e-14,-483.7 119.026,-483.7 119.026,-366.9 -1.42109e-14,-366.9"/>
<text text-anchor="middle" x="59.513" y="-467.1" font-family="Times,serif" font-size="14.00">playlist</text>
<polyline fill="none" stroke="black" points="-1.42109e-14,-458.9 119.026,-458.9 "/>
<text text-anchor="start" x="8" y="-442.3" font-family="Times,serif" font-size="14.00">id :NUMBER</text>
<text text-anchor="start" x="8" y="-425.5" font-family="Times,serif" font-size="14.00">name :STRING</text>
<text text-anchor="start" x="8" y="-408.7" font-family="Times,serif" font-size="14.00">artists :VIRTUAL</text>
<text text-anchor="start" x="8" y="-391.9" font-family="Times,serif" font-size="14.00">createdAt :DATE</text>
<text text-anchor="start" x="8" y="-375.1" font-family="Times,serif" font-size="14.00">updatedAt :DATE</text>
</g>
<!-- song -->
<g id="node4" class="node"><title>song</title>
<polygon fill="none" stroke="black" points="49.5477,-154.3 49.5477,-304.7 179.478,-304.7 179.478,-154.3 49.5477,-154.3"/>
<text text-anchor="middle" x="114.513" y="-288.1" font-family="Times,serif" font-size="14.00">song</text>
<polyline fill="none" stroke="black" points="49.5477,-279.9 179.478,-279.9 "/>
<text text-anchor="start" x="57.5477" y="-263.3" font-family="Times,serif" font-size="14.00">id :NUMBER</text>
<text text-anchor="start" x="57.5477" y="-246.5" font-family="Times,serif" font-size="14.00">name :STRING</text>
<text text-anchor="start" x="57.5477" y="-229.7" font-family="Times,serif" font-size="14.00">genre :STRING</text>
<text text-anchor="start" x="57.5477" y="-212.9" font-family="Times,serif" font-size="14.00">url :STRING</text>
<text text-anchor="start" x="57.5477" y="-196.1" font-family="Times,serif" font-size="14.00">createdAt :DATE</text>
<text text-anchor="start" x="57.5477" y="-179.3" font-family="Times,serif" font-size="14.00">updatedAt :DATE</text>
<text text-anchor="start" x="57.5477" y="-162.5" font-family="Times,serif" font-size="14.00">albumId :NUMBER</text>
</g>
<!-- playlist&#45;&gt;song -->
<g id="edge1" class="edge"><title>playlist&#45;&gt;song</title>
<path fill="none" stroke="black" d="M55.4675,-356.409C56.1585,-345.178 57.7152,-333.76 60.6238,-323.2 61.4379,-320.244 62.3703,-317.285 63.4024,-314.336"/>
<polygon fill="black" stroke="black" points="55.4581,-356.649 50.5658,-366.463 55.2602,-361.645 55.0623,-366.641 55.0623,-366.641 55.0623,-366.641 55.2602,-361.645 59.5588,-366.819 55.4581,-356.649 55.4581,-356.649"/>
<polygon fill="black" stroke="black" points="63.4186,-314.293 71.2139,-306.581 65.2168,-309.628 67.0149,-304.962 67.0149,-304.962 67.0149,-304.962 65.2168,-309.628 62.816,-303.344 63.4186,-314.293 63.4186,-314.293"/>
<text text-anchor="middle" x="77.4576" y="-327.4" font-family="Times,serif" font-size="14.00">songs</text>
</g>
<!-- artist -->
<g id="node2" class="node"><title>artist</title>
<polygon fill="none" stroke="black" points="55,-0.5 55,-100.5 174.026,-100.5 174.026,-0.5 55,-0.5"/>
<text text-anchor="middle" x="114.513" y="-83.9" font-family="Times,serif" font-size="14.00">artist</text>
<polyline fill="none" stroke="black" points="55,-75.7 174.026,-75.7 "/>
<text text-anchor="start" x="63" y="-59.1" font-family="Times,serif" font-size="14.00">id :NUMBER</text>
<text text-anchor="start" x="63" y="-42.3" font-family="Times,serif" font-size="14.00">name :STRING</text>
<text text-anchor="start" x="63" y="-25.5" font-family="Times,serif" font-size="14.00">createdAt :DATE</text>
<text text-anchor="start" x="63" y="-8.7" font-family="Times,serif" font-size="14.00">updatedAt :DATE</text>
</g>
<!-- artist&#45;&gt;song -->
<g id="edge2" class="edge"><title>artist&#45;&gt;song</title>
<path fill="none" stroke="black" d="M120.086,-110.87C120.251,-113.617 120.395,-116.337 120.513,-119 120.877,-127.202 120.948,-135.749 120.814,-144.29"/>
<polygon fill="black" stroke="black" points="120.084,-110.842 123.899,-100.562 119.747,-105.854 119.409,-100.865 119.409,-100.865 119.409,-100.865 119.747,-105.854 114.92,-101.169 120.084,-110.842 120.084,-110.842"/>
<polygon fill="black" stroke="black" points="120.814,-144.297 116.07,-154.184 120.692,-149.296 120.569,-154.294 120.569,-154.294 120.569,-154.294 120.692,-149.296 125.068,-154.405 120.814,-144.297 120.814,-144.297"/>
<text text-anchor="middle" x="137.458" y="-123.2" font-family="Times,serif" font-size="14.00">songs</text>
</g>
<!-- album -->
<g id="node3" class="node"><title>album</title>
<polygon fill="none" stroke="black" points="137.05,-358.5 137.05,-492.1 259.976,-492.1 259.976,-358.5 137.05,-358.5"/>
<text text-anchor="middle" x="198.513" y="-475.5" font-family="Times,serif" font-size="14.00">album</text>
<polyline fill="none" stroke="black" points="137.05,-467.3 259.976,-467.3 "/>
<text text-anchor="start" x="145.05" y="-450.7" font-family="Times,serif" font-size="14.00">id :NUMBER</text>
<text text-anchor="start" x="145.05" y="-433.9" font-family="Times,serif" font-size="14.00">name :STRING</text>
<text text-anchor="start" x="145.05" y="-417.1" font-family="Times,serif" font-size="14.00">artists :VIRTUAL</text>
<text text-anchor="start" x="145.05" y="-400.3" font-family="Times,serif" font-size="14.00">createdAt :DATE</text>
<text text-anchor="start" x="145.05" y="-383.5" font-family="Times,serif" font-size="14.00">updatedAt :DATE</text>
<text text-anchor="start" x="145.05" y="-366.7" font-family="Times,serif" font-size="14.00">artistId :NUMBER</text>
</g>
<!-- album&#45;&gt;song -->
<g id="edge3" class="edge"><title>album&#45;&gt;song</title>
<path fill="none" stroke="black" d="M166.772,-351.07C161.551,-339.024 156.105,-326.459 150.784,-314.182"/>
<ellipse fill="none" stroke="black" cx="168.366" cy="-354.748" rx="4.00002" ry="4.00002"/>
<polygon fill="black" stroke="black" points="150.722,-314.039 150.874,-303.074 148.733,-309.451 146.745,-304.864 146.745,-304.864 146.745,-304.864 148.733,-309.451 142.616,-306.653 150.722,-314.039 150.722,-314.039"/>
</g>
<!-- song&#45;&gt;playlist -->
<g id="edge5" class="edge"><title>song&#45;&gt;playlist</title>
<path fill="none" stroke="black" d="M99.1144,-314.87C97.0931,-323.409 94.8893,-331.91 92.513,-340 90.8672,-345.603 89.004,-351.356 87.0211,-357.096"/>
<polygon fill="black" stroke="black" points="99.176,-314.6 105.79,-305.853 100.289,-309.725 101.403,-304.851 101.403,-304.851 101.403,-304.851 100.289,-309.725 97.0158,-303.849 99.176,-314.6 99.176,-314.6"/>
<polygon fill="black" stroke="black" points="86.9489,-357.298 79.35,-365.205 85.2686,-362.008 83.5883,-366.717 83.5883,-366.717 83.5883,-366.717 85.2686,-362.008 87.8266,-368.229 86.9489,-357.298 86.9489,-357.298"/>
<text text-anchor="middle" x="120.846" y="-327.4" font-family="Times,serif" font-size="14.00">playlists</text>
</g>
<!-- song&#45;&gt;artist -->
<g id="edge4" class="edge"><title>song&#45;&gt;artist</title>
<path fill="none" stroke="black" d="M81.57,-143.845C80.9212,-135.485 81.2831,-127.1 83.0768,-119 83.7057,-116.16 84.4668,-113.298 85.3322,-110.44"/>
<polygon fill="black" stroke="black" points="81.5998,-144.085 78.3688,-154.564 82.217,-149.046 82.8343,-154.008 82.8343,-154.008 82.8343,-154.008 82.217,-149.046 87.2999,-153.453 81.5998,-144.085 81.5998,-144.085"/>
<polygon fill="black" stroke="black" points="85.4019,-110.235 92.8932,-102.227 87.0183,-105.504 88.6348,-100.772 88.6348,-100.772 88.6348,-100.772 87.0183,-105.504 84.3765,-99.3175 85.4019,-110.235 85.4019,-110.235"/>
<text text-anchor="middle" x="100.231" y="-123.2" font-family="Times,serif" font-size="14.00">artists</text>
</g>
<!-- artistSong -->
<g id="node5" class="node"><title>artistSong</title>
<polygon fill="none" stroke="black" points="278.05,-375.3 278.05,-475.3 400.976,-475.3 400.976,-375.3 278.05,-375.3"/>
<text text-anchor="middle" x="339.513" y="-458.7" font-family="Times,serif" font-size="14.00">artistSong</text>
<polyline fill="none" stroke="black" points="278.05,-450.5 400.976,-450.5 "/>
<text text-anchor="start" x="286.05" y="-433.9" font-family="Times,serif" font-size="14.00">createdAt :DATE</text>
<text text-anchor="start" x="286.05" y="-417.1" font-family="Times,serif" font-size="14.00">updatedAt :DATE</text>
<text text-anchor="start" x="286.05" y="-400.3" font-family="Times,serif" font-size="14.00">artistId :NUMBER</text>
<text text-anchor="start" x="286.05" y="-383.5" font-family="Times,serif" font-size="14.00">songId :NUMBER</text>
</g>
<!-- playlistSong -->
<g id="node6" class="node"><title>playlistSong</title>
<polygon fill="none" stroke="black" points="419.435,-375.3 419.435,-475.3 555.591,-475.3 555.591,-375.3 419.435,-375.3"/>
<text text-anchor="middle" x="487.513" y="-458.7" font-family="Times,serif" font-size="14.00">playlistSong</text>
<polyline fill="none" stroke="black" points="419.435,-450.5 555.591,-450.5 "/>
<text text-anchor="start" x="427.435" y="-433.9" font-family="Times,serif" font-size="14.00">createdAt :DATE</text>
<text text-anchor="start" x="427.435" y="-417.1" font-family="Times,serif" font-size="14.00">updatedAt :DATE</text>
<text text-anchor="start" x="427.435" y="-400.3" font-family="Times,serif" font-size="14.00">songId :NUMBER</text>
<text text-anchor="start" x="427.435" y="-383.5" font-family="Times,serif" font-size="14.00">playlistId :NUMBER</text>
</g>
</g>
</svg>

