<?xml version="1.0" encoding="UTF-8" standalone="no"?>
<!DOCTYPE svg PUBLIC "-//W3C//DTD SVG 1.1//EN"
 "http://www.w3.org/Graphics/SVG/1.1/DTD/svg11.dtd">
<!-- Generated by graphviz version 2.40.1 (20161225.0304)
 -->
<!-- Title: models_diagram Pages: 1 -->
<svg width="950pt" height="520pt"
 viewBox="0.00 0.00 949.76 519.76" xmlns="http://www.w3.org/2000/svg" xmlns:xlink="http://www.w3.org/1999/xlink">
<g id="graph0" class="graph" transform="scale(1 1) rotate(0) translate(36 483.7634)">
<title>models_diagram</title>
<polygon fill="#ffffff" stroke="transparent" points="-36,36 -36,-483.7634 913.7634,-483.7634 913.7634,36 -36,36"/>
<!-- playlist -->
<g id="node1" class="node">
<title>playlist</title>
<polygon fill="#add8e6" stroke="transparent" points=".5,-256.8817 .5,-278.8817 83.5,-278.8817 83.5,-256.8817 .5,-256.8817"/>
<polygon fill="none" stroke="#000000" points=".5,-256.8817 .5,-278.8817 83.5,-278.8817 83.5,-256.8817 .5,-256.8817"/>
<text text-anchor="start" x="27.278" y="-264.8817" font-family="Times,serif" font-size="10.00" fill="#000000">playlist</text>
<polygon fill="none" stroke="#000000" points=".5,-234.8817 .5,-256.8817 83.5,-256.8817 83.5,-234.8817 .5,-234.8817"/>
<text text-anchor="start" x="5.5" y="-242.8817" font-family="Times,serif" font-size="10.00" fill="#000000">id: NUMBER</text>
<polygon fill="none" stroke="#000000" points=".5,-212.8817 .5,-234.8817 83.5,-234.8817 83.5,-212.8817 .5,-212.8817"/>
<text text-anchor="start" x="5.5" y="-220.8817" font-family="Times,serif" font-size="10.00" fill="#000000">name: STRING</text>
<polygon fill="none" stroke="#000000" points=".5,-190.8817 .5,-212.8817 83.5,-212.8817 83.5,-190.8817 .5,-190.8817"/>
<text text-anchor="start" x="5.4825" y="-198.8817" font-family="Times,serif" font-size="10.00" fill="#000000">artists: VIRTUAL</text>
<polygon fill="none" stroke="#000000" points=".5,-168.8817 .5,-190.8817 83.5,-190.8817 83.5,-168.8817 .5,-168.8817"/>
<text text-anchor="start" x="5.5" y="-176.8817" font-family="Times,serif" font-size="10.00" fill="#000000">createdAt: DATE</text>
<polygon fill="none" stroke="#000000" points=".5,-146.8817 .5,-168.8817 83.5,-168.8817 83.5,-146.8817 .5,-146.8817"/>
<text text-anchor="start" x="5.205" y="-154.8817" font-family="Times,serif" font-size="10.00" fill="#000000">updatedAt: DATE</text>
</g>
<!-- playlistSong -->
<g id="node7" class="node">
<title>playlistSong</title>
<polygon fill="#add8e6" stroke="transparent" points="187.5,-245.8817 187.5,-267.8817 282.5,-267.8817 282.5,-245.8817 187.5,-245.8817"/>
<polygon fill="none" stroke="#000000" points="187.5,-245.8817 187.5,-267.8817 282.5,-267.8817 282.5,-245.8817 187.5,-245.8817"/>
<text text-anchor="start" x="209.9985" y="-253.8817" font-family="Times,serif" font-size="10.00" fill="#000000">playlistSong</text>
<polygon fill="none" stroke="#000000" points="187.5,-223.8817 187.5,-245.8817 282.5,-245.8817 282.5,-223.8817 187.5,-223.8817"/>
<text text-anchor="start" x="192.5" y="-231.8817" font-family="Times,serif" font-size="10.00" fill="#000000">createdAt: DATE</text>
<polygon fill="none" stroke="#000000" points="187.5,-201.8817 187.5,-223.8817 282.5,-223.8817 282.5,-201.8817 187.5,-201.8817"/>
<text text-anchor="start" x="192.5" y="-209.8817" font-family="Times,serif" font-size="10.00" fill="#000000">updatedAt: DATE</text>
<polygon fill="none" stroke="#000000" points="187.5,-179.8817 187.5,-201.8817 282.5,-201.8817 282.5,-179.8817 187.5,-179.8817"/>
<text text-anchor="start" x="192.5" y="-187.8817" font-family="Times,serif" font-size="10.00" fill="#000000">songId: NUMBER</text>
<polygon fill="none" stroke="#000000" points="187.5,-157.8817 187.5,-179.8817 282.5,-179.8817 282.5,-157.8817 187.5,-157.8817"/>
<text text-anchor="start" x="192.087" y="-165.8817" font-family="Times,serif" font-size="10.00" fill="#000000">playlistId: NUMBER</text>
</g>
<!-- playlist&#45;&gt;playlistSong -->
<g id="edge1" class="edge">
<title>playlist&#45;&gt;playlistSong</title>
<path fill="none" stroke="#c2c2c2" stroke-width=".75" d="M83.3781,-212.8817C111.9605,-212.8817 150.0755,-212.8817 180.8758,-212.8817"/>
<polygon fill="#c2c2c2" stroke="#c2c2c2" stroke-width=".75" points="180.9334,-212.8818 186.9334,-215.5817 183.9334,-212.8818 186.9334,-212.8817 186.9334,-212.8817 186.9334,-212.8817 183.9334,-212.8818 186.9333,-210.1817 180.9334,-212.8818 180.9334,-212.8818"/>
</g>
<!-- artist -->
<g id="node2" class="node">
<title>artist</title>
<polygon fill="#add8e6" stroke="transparent" points="636.2634,-245.8817 636.2634,-267.8817 719.2634,-267.8817 719.2634,-245.8817 636.2634,-245.8817"/>
<polygon fill="none" stroke="#000000" points="636.2634,-245.8817 636.2634,-267.8817 719.2634,-267.8817 719.2634,-245.8817 636.2634,-245.8817"/>
<text text-anchor="start" x="667.7664" y="-253.8817" font-family="Times,serif" font-size="10.00" fill="#000000">artist</text>
<polygon fill="none" stroke="#000000" points="636.2634,-223.8817 636.2634,-245.8817 719.2634,-245.8817 719.2634,-223.8817 636.2634,-223.8817"/>
<text text-anchor="start" x="641.2634" y="-231.8817" font-family="Times,serif" font-size="10.00" fill="#000000">id: NUMBER</text>
<polygon fill="none" stroke="#000000" points="636.2634,-201.8817 636.2634,-223.8817 719.2634,-223.8817 719.2634,-201.8817 636.2634,-201.8817"/>
<text text-anchor="start" x="641.2634" y="-209.8817" font-family="Times,serif" font-size="10.00" fill="#000000">name: STRING</text>
<polygon fill="none" stroke="#000000" points="636.2634,-179.8817 636.2634,-201.8817 719.2634,-201.8817 719.2634,-179.8817 636.2634,-179.8817"/>
<text text-anchor="start" x="641.2634" y="-187.8817" font-family="Times,serif" font-size="10.00" fill="#000000">createdAt: DATE</text>
<polygon fill="none" stroke="#000000" points="636.2634,-157.8817 636.2634,-179.8817 719.2634,-179.8817 719.2634,-157.8817 636.2634,-157.8817"/>
<text text-anchor="start" x="640.9684" y="-165.8817" font-family="Times,serif" font-size="10.00" fill="#000000">updatedAt: DATE</text>
</g>
<!-- artistSong -->
<g id="node6" class="node">
<title>artistSong</title>
<polygon fill="#add8e6" stroke="transparent" points="476.3817,-88 476.3817,-110 562.3817,-110 562.3817,-88 476.3817,-88"/>
<polygon fill="none" stroke="#000000" points="476.3817,-88 476.3817,-110 562.3817,-110 562.3817,-88 476.3817,-88"/>
<text text-anchor="start" x="499.1052" y="-96" font-family="Times,serif" font-size="10.00" fill="#000000">artistSong</text>
<polygon fill="none" stroke="#000000" points="476.3817,-66 476.3817,-88 562.3817,-88 562.3817,-66 476.3817,-66"/>
<text text-anchor="start" x="481.3817" y="-74" font-family="Times,serif" font-size="10.00" fill="#000000">createdAt: DATE</text>
<polygon fill="none" stroke="#000000" points="476.3817,-44 476.3817,-66 562.3817,-66 562.3817,-44 476.3817,-44"/>
<text text-anchor="start" x="481.3817" y="-52" font-family="Times,serif" font-size="10.00" fill="#000000">updatedAt: DATE</text>
<polygon fill="none" stroke="#000000" points="476.3817,-22 476.3817,-44 562.3817,-44 562.3817,-22 476.3817,-22"/>
<text text-anchor="start" x="481.1937" y="-30" font-family="Times,serif" font-size="10.00" fill="#000000">artistId: NUMBER</text>
<polygon fill="none" stroke="#000000" points="476.3817,0 476.3817,-22 562.3817,-22 562.3817,0 476.3817,0"/>
<text text-anchor="start" x="481.3817" y="-8" font-family="Times,serif" font-size="10.00" fill="#000000">songId: NUMBER</text>
</g>
<!-- artist&#45;&gt;artistSong -->
<g id="edge2" class="edge">
<title>artist&#45;&gt;artistSong</title>
<path fill="none" stroke="#c2c2c2" stroke-width=".75" d="M635.3685,-170.9868C614.3,-149.9183 588.6784,-124.2967 566.8803,-102.4986"/>
<polygon fill="#c2c2c2" stroke="#c2c2c2" stroke-width=".75" points="566.8168,-102.4351 564.4833,-96.2832 564.6955,-100.3138 562.5741,-98.1924 562.5741,-98.1924 562.5741,-98.1924 564.6955,-100.3138 560.6649,-100.1016 566.8168,-102.4351 566.8168,-102.4351"/>
</g>
<!-- artistInfo -->
<g id="node3" class="node">
<title>artistInfo</title>
<polygon fill="#add8e6" stroke="transparent" points="775.2634,-267.8817 775.2634,-289.8817 878.2634,-289.8817 878.2634,-267.8817 775.2634,-267.8817"/>
<polygon fill="none" stroke="#000000" points="775.2634,-267.8817 775.2634,-289.8817 878.2634,-289.8817 878.2634,-267.8817 775.2634,-267.8817"/>
<text text-anchor="start" x="808.4374" y="-275.8817" font-family="Times,serif" font-size="10.00" fill="#000000">artistInfo</text>
<polygon fill="none" stroke="#000000" points="775.2634,-245.8817 775.2634,-267.8817 878.2634,-267.8817 878.2634,-245.8817 775.2634,-245.8817"/>
<text text-anchor="start" x="780.2634" y="-253.8817" font-family="Times,serif" font-size="10.00" fill="#000000">id: NUMBER</text>
<polygon fill="none" stroke="#000000" points="775.2634,-223.8817 775.2634,-245.8817 878.2634,-245.8817 878.2634,-223.8817 775.2634,-223.8817"/>
<text text-anchor="start" x="780.2634" y="-231.8817" font-family="Times,serif" font-size="10.00" fill="#000000">birthplace: STRING</text>
<polygon fill="none" stroke="#000000" points="775.2634,-201.8817 775.2634,-223.8817 878.2634,-223.8817 878.2634,-201.8817 775.2634,-201.8817"/>
<text text-anchor="start" x="780.2454" y="-209.8817" font-family="Times,serif" font-size="10.00" fill="#000000">favoriteFood: STRING</text>
<polygon fill="none" stroke="#000000" points="775.2634,-179.8817 775.2634,-201.8817 878.2634,-201.8817 878.2634,-179.8817 775.2634,-179.8817"/>
<text text-anchor="start" x="780.2634" y="-187.8817" font-family="Times,serif" font-size="10.00" fill="#000000">createdAt: DATE</text>
<polygon fill="none" stroke="#000000" points="775.2634,-157.8817 775.2634,-179.8817 878.2634,-179.8817 878.2634,-157.8817 775.2634,-157.8817"/>
<text text-anchor="start" x="780.2634" y="-165.8817" font-family="Times,serif" font-size="10.00" fill="#000000">updatedAt: DATE</text>
<polygon fill="none" stroke="#000000" points="775.2634,-135.8817 775.2634,-157.8817 878.2634,-157.8817 878.2634,-135.8817 775.2634,-135.8817"/>
<text text-anchor="start" x="780.2634" y="-143.8817" font-family="Times,serif" font-size="10.00" fill="#000000">artistId: NUMBER</text>
</g>
<!-- artistInfo&#45;&gt;artist -->
<g id="edge5" class="edge">
<title>artistInfo&#45;&gt;artist</title>
<path fill="none" stroke="#c2c2c2" stroke-width=".75" d="M774.5686,-212.8817C756.4133,-212.8817 736.2583,-212.8817 719.0221,-212.8817"/>
</g>
<!-- album -->
<g id="node4" class="node">
<title>album</title>
<polygon fill="#add8e6" stroke="transparent" points="476.3817,-425.7634 476.3817,-447.7634 562.3817,-447.7634 562.3817,-425.7634 476.3817,-425.7634"/>
<polygon fill="none" stroke="#000000" points="476.3817,-425.7634 476.3817,-447.7634 562.3817,-447.7634 562.3817,-425.7634 476.3817,-425.7634"/>
<text text-anchor="start" x="506.8832" y="-433.7634" font-family="Times,serif" font-size="10.00" fill="#000000">album</text>
<polygon fill="none" stroke="#000000" points="476.3817,-403.7634 476.3817,-425.7634 562.3817,-425.7634 562.3817,-403.7634 476.3817,-403.7634"/>
<text text-anchor="start" x="481.3817" y="-411.7634" font-family="Times,serif" font-size="10.00" fill="#000000">id: NUMBER</text>
<polygon fill="none" stroke="#000000" points="476.3817,-381.7634 476.3817,-403.7634 562.3817,-403.7634 562.3817,-381.7634 476.3817,-381.7634"/>
<text text-anchor="start" x="481.3817" y="-389.7634" font-family="Times,serif" font-size="10.00" fill="#000000">name: STRING</text>
<polygon fill="none" stroke="#000000" points="476.3817,-359.7634 476.3817,-381.7634 562.3817,-381.7634 562.3817,-359.7634 476.3817,-359.7634"/>
<text text-anchor="start" x="481.3817" y="-367.7634" font-family="Times,serif" font-size="10.00" fill="#000000">artists: VIRTUAL</text>
<polygon fill="none" stroke="#000000" points="476.3817,-337.7634 476.3817,-359.7634 562.3817,-359.7634 562.3817,-337.7634 476.3817,-337.7634"/>
<text text-anchor="start" x="481.3817" y="-345.7634" font-family="Times,serif" font-size="10.00" fill="#000000">createdAt: DATE</text>
<polygon fill="none" stroke="#000000" points="476.3817,-315.7634 476.3817,-337.7634 562.3817,-337.7634 562.3817,-315.7634 476.3817,-315.7634"/>
<text text-anchor="start" x="481.3817" y="-323.7634" font-family="Times,serif" font-size="10.00" fill="#000000">updatedAt: DATE</text>
<polygon fill="none" stroke="#000000" points="476.3817,-293.7634 476.3817,-315.7634 562.3817,-315.7634 562.3817,-293.7634 476.3817,-293.7634"/>
<text text-anchor="start" x="481.1937" y="-301.7634" font-family="Times,serif" font-size="10.00" fill="#000000">artistId: NUMBER</text>
</g>
<!-- album&#45;&gt;artist -->
<g id="edge6" class="edge">
<title>album&#45;&gt;artist</title>
<path fill="none" stroke="#c2c2c2" stroke-width=".75" d="M566.8426,-323.3026C588.7068,-301.4383 614.4242,-275.7209 635.5366,-254.6085"/>
<polygon fill="#c2c2c2" stroke="#c2c2c2" stroke-width=".75" points="566.7662,-323.3789 560.6144,-325.7123 564.6449,-325.5002 562.5236,-327.6215 562.5236,-327.6215 562.5236,-327.6215 564.6449,-325.5002 564.4328,-329.5307 566.7662,-323.3789 566.7662,-323.3789"/>
</g>
<!-- song -->
<g id="node5" class="node">
<title>song</title>
<polygon fill="#add8e6" stroke="transparent" points="316.5,-278.8817 316.5,-300.8817 407.5,-300.8817 407.5,-278.8817 316.5,-278.8817"/>
<polygon fill="none" stroke="#000000" points="316.5,-278.8817 316.5,-300.8817 407.5,-300.8817 407.5,-278.8817 316.5,-278.8817"/>
<text text-anchor="start" x="352.5555" y="-286.8817" font-family="Times,serif" font-size="10.00" fill="#000000">song</text>
<polygon fill="none" stroke="#000000" points="316.5,-256.8817 316.5,-278.8817 407.5,-278.8817 407.5,-256.8817 316.5,-256.8817"/>
<text text-anchor="start" x="321.5" y="-264.8817" font-family="Times,serif" font-size="10.00" fill="#000000">id: NUMBER</text>
<polygon fill="none" stroke="#000000" points="316.5,-234.8817 316.5,-256.8817 407.5,-256.8817 407.5,-234.8817 316.5,-234.8817"/>
<text text-anchor="start" x="321.5" y="-242.8817" font-family="Times,serif" font-size="10.00" fill="#000000">name: STRING</text>
<polygon fill="none" stroke="#000000" points="316.5,-212.8817 316.5,-234.8817 407.5,-234.8817 407.5,-212.8817 316.5,-212.8817"/>
<text text-anchor="start" x="321.5" y="-220.8817" font-family="Times,serif" font-size="10.00" fill="#000000">genre: STRING</text>
<polygon fill="none" stroke="#000000" points="316.5,-190.8817 316.5,-212.8817 407.5,-212.8817 407.5,-190.8817 316.5,-190.8817"/>
<text text-anchor="start" x="321.5" y="-198.8817" font-family="Times,serif" font-size="10.00" fill="#000000">url: STRING</text>
<polygon fill="none" stroke="#000000" points="316.5,-168.8817 316.5,-190.8817 407.5,-190.8817 407.5,-168.8817 316.5,-168.8817"/>
<text text-anchor="start" x="321.5" y="-176.8817" font-family="Times,serif" font-size="10.00" fill="#000000">createdAt: DATE</text>
<polygon fill="none" stroke="#000000" points="316.5,-146.8817 316.5,-168.8817 407.5,-168.8817 407.5,-146.8817 316.5,-146.8817"/>
<text text-anchor="start" x="321.5" y="-154.8817" font-family="Times,serif" font-size="10.00" fill="#000000">updatedAt: DATE</text>
<polygon fill="none" stroke="#000000" points="316.5,-124.8817 316.5,-146.8817 407.5,-146.8817 407.5,-124.8817 316.5,-124.8817"/>
<text text-anchor="start" x="321.3105" y="-132.8817" font-family="Times,serif" font-size="10.00" fill="#000000">albumId: NUMBER</text>
</g>
<!-- song&#45;&gt;album -->
<g id="edge7" class="edge">
<title>song&#45;&gt;album</title>
<path fill="none" stroke="#c2c2c2" stroke-width=".75" d="M411.5543,-262.936C432.3517,-283.7334 456.2521,-307.6338 476.2578,-327.6395"/>
<polygon fill="#c2c2c2" stroke="#c2c2c2" stroke-width=".75" points="411.4086,-262.7903 409.0751,-256.6384 409.2873,-260.669 407.1659,-258.5476 407.1659,-258.5476 407.1659,-258.5476 409.2873,-260.669 405.2567,-260.4568 411.4086,-262.7903 411.4086,-262.7903"/>
</g>
<!-- song&#45;&gt;artistSong -->
<g id="edge3" class="edge">
<title>song&#45;&gt;artistSong</title>
<path fill="none" stroke="#c2c2c2" stroke-width=".75" d="M407.1659,-167.2158C427.4866,-146.8951 451.4078,-122.9739 471.9322,-102.4495"/>
<polygon fill="#c2c2c2" stroke="#c2c2c2" stroke-width=".75" points="472.0151,-102.3666 478.167,-100.0331 474.1364,-100.2453 476.2578,-98.1239 476.2578,-98.1239 476.2578,-98.1239 474.1364,-100.2453 474.3486,-96.2147 472.0151,-102.3666 472.0151,-102.3666"/>
</g>
<!-- song&#45;&gt;playlistSong -->
<g id="edge4" class="edge">
<title>song&#45;&gt;playlistSong</title>
<path fill="none" stroke="#c2c2c2" stroke-width=".75" d="M315.6501,-212.8817C306.8754,-212.8817 297.6123,-212.8817 288.6069,-212.8817"/>
<polygon fill="#c2c2c2" stroke="#c2c2c2" stroke-width=".75" points="288.4228,-212.8818 282.4228,-210.1817 285.4228,-212.8818 282.4228,-212.8817 282.4228,-212.8817 282.4228,-212.8817 285.4228,-212.8818 282.4227,-215.5817 288.4228,-212.8818 288.4228,-212.8818"/>
</g>
</g>
</svg>
